<?xml version="1.0" standalone="no"?>
<!DOCTYPE svg PUBLIC "-//W3C//DTD SVG 20010904//EN"
 "http://www.w3.org/TR/2001/REC-SVG-20010904/DTD/svg10.dtd">
<svg version="1.0" xmlns="http://www.w3.org/2000/svg"
 width="300.000000pt" height="300.000000pt" viewBox="0 0 300.000000 300.000000"
 preserveAspectRatio="xMidYMid meet">
<metadata>
Created by potrace 1.10, written by Peter Selinger 2001-2011
</metadata>
<g transform="translate(0.000000,300.000000) scale(0.050000,-0.050000)"
fill="#000000" stroke="none">
<path d="M2520 5892 c-2103 -371 -3127 -2748 -1950 -4523 968 -1458 3049
-1728 4364 -566 1100 973 1311 2600 496 3827 -412 621 -1080 1074 -1830 1240
-202 46 -871 59 -1080 22z m985 -354 c1991 -393 2743 -2866 1313 -4319 -1394
-1418 -3818 -748 -4311 1191 -459 1805 1157 3491 2998 3128z"/>
<path d="M1994 4830 c-338 -93 -619 -353 -756 -700 -56 -139 -86 -1848 -37
-2083 73 -352 376 -687 735 -811 210 -72 1959 -72 2169 1 353 122 631 426 725
792 44 176 44 1807 0 1982 -101 393 -400 703 -789 817 -146 43 -1892 45 -2047
2z m1967 -342 c224 -65 381 -203 487 -427 l62 -131 0 -900 0 -900 -48 -120
c-67 -166 -266 -365 -432 -432 -137 -54 -1611 -86 -1862 -39 -262 48 -463 201
-574 437 l-64 134 -6 866 c-5 754 -2 882 27 980 77 271 293 481 559 545 132
33 1735 21 1851 -13z"/>
<path d="M3851 4135 c-154 -135 -64 -375 140 -375 189 0 284 228 151 362 -77
76 -212 82 -291 13z"/>
<path d="M2890 3899 c-612 -95 -954 -757 -677 -1309 393 -783 1561 -597 1707
272 100 592 -435 1130 -1030 1037z m398 -379 c551 -279 323 -1136 -293 -1096
-640 42 -763 905 -161 1128 116 43 335 28 454 -32z"/>
</g>
</svg>
