<?xml version="1.0" standalone="no"?>
<!DOCTYPE svg PUBLIC "-//W3C//DTD SVG 20010904//EN"
 "http://www.w3.org/TR/2001/REC-SVG-20010904/DTD/svg10.dtd">
<svg version="1.0" xmlns="http://www.w3.org/2000/svg"
 width="300.000000pt" height="300.000000pt" viewBox="0 0 300.000000 300.000000"
 preserveAspectRatio="xMidYMid meet">
<metadata>
Created by potrace 1.10, written by Peter Selinger 2001-2011
</metadata>
<g transform="translate(0.000000,300.000000) scale(0.050000,-0.050000)"
fill="#000000" stroke="none">
<path d="M2607 5929 c0 -15 8 -22 19 -15 12 7 15 -8 7 -41 -11 -43 -7 -53 22
-51 20 1 25 5 10 11 -17 7 -19 21 -6 45 13 25 9 40 -17 56 -27 17 -35 16 -35
-5z"/>
<path d="M5894 5407 c-7 -7 -3 -30 9 -52 19 -37 16 -40 -31 -31 -44 9 -52 3
-52 -37 0 -26 9 -47 19 -47 11 0 15 14 8 30 -7 19 1 30 21 30 29 0 41 -24 34
-66 -2 -10 5 -12 14 -7 9 6 14 49 10 96 -7 90 -12 104 -32 84z"/>
<path d="M5951 5141 c-8 -12 -24 -16 -37 -8 -13 7 -17 6 -9 -3 8 -9 6 -26 -4
-39 -12 -14 -12 -34 0 -52 14 -23 18 -19 19 17 0 30 8 41 23 32 14 -8 18 -5
10 7 -7 12 -2 26 12 31 14 4 19 15 12 23 -7 7 -19 4 -26 -8z"/>
<path d="M5844 5032 c8 -9 5 -35 -6 -56 -18 -34 -16 -37 15 -19 40 20 50 23
97 23 17 0 30 14 30 31 0 29 -3 29 -32 -1 -30 -29 -36 -29 -75 4 -24 19 -37
28 -29 18z"/>
<path d="M1005 4949 c-308 -83 -534 -311 -614 -620 -45 -173 -46 -2483 -1
-2655 82 -315 308 -542 621 -623 174 -46 3801 -47 3975 -1 315 82 542 308 623
621 46 175 46 2483 0 2658 -81 313 -308 539 -623 621 -166 43 -3820 43 -3981
-1z m4025 -276 c146 -68 220 -139 289 -277 l61 -122 0 -1274 0 -1274 -61 -122
c-69 -138 -143 -209 -289 -277 l-100 -47 -1930 0 -1930 0 -100 47 c-146 68
-220 139 -289 277 l-61 122 0 1272 0 1272 47 100 c68 146 139 220 277 289
l122 61 1932 0 1932 0 100 -47z"/>
<path d="M1023 4303 c-95 -74 -69 -129 170 -361 119 -117 399 -390 620 -607
l403 -395 -50 -40 c-103 -81 -1137 -1069 -1165 -1113 -41 -64 24 -154 117
-163 57 -6 87 15 288 210 123 119 396 380 606 580 l381 363 249 -250 c377
-380 330 -379 708 -5 l260 258 610 -580 c650 -617 669 -631 760 -540 87 87 75
103 -570 713 -335 317 -608 582 -605 588 3 6 277 275 609 598 332 323 607 602
611 619 17 77 -77 175 -151 159 -18 -4 -443 -407 -946 -897 -503 -490 -921
-890 -928 -890 -7 0 -424 400 -927 890 -941 915 -962 932 -1050 863z"/>
<path d="M5903 4858 c-19 -51 -6 -158 20 -158 10 0 12 24 4 53 -11 44 -7 51
20 41 18 -7 33 -5 33 4 0 10 -14 23 -32 30 -18 7 -27 25 -21 42 7 17 7 30 2
30 -6 0 -17 -19 -26 -42z"/>
</g>
</svg>
