<svg xmlns="http://www.w3.org/2000/svg" viewBox="0 0 316 328"><path fill="#fbfbfb" stroke="#fbfbfb" d="M96.5 31.724c-2.908.714-4.041 1.841-9.023 8.967C78.272 53.86 72.649 68.416 66.5 95c-9.042 39.087-21.94 63-33.98 63-4.454 0-7.002-3.699-7.989-11.595-1.172-9.383-3.053-10.067-11.196-4.073-7.434 5.473-9.809 8.966-9.719 14.293.213 12.577 17.04 19.472 31.309 12.83 16.809-7.824 27.39-26.636 38.134-67.793 5.995-22.966 10.827-37.627 14.945-45.343 1.707-3.201 2.804-4.919 2.436-3.819-4.519 13.523-6.356 28.347-7.467 60.25-.541 15.537-1.687 33.312-2.546 39.5a3351.642 3351.642 0 0 0-2.137 15.608l-.575 4.359 8.57-.359c6.782-.283 9.159-.798 11.392-2.465 7.567-5.649 19.079-25.088 28.658-48.393 14.522-35.329 20.192-47.414 27.269-58.119 6.21-9.395 8.252-10.568 4.075-2.342-14.716 28.98-22.192 76.835-14.894 95.342 3.649 9.252 6.399 12.576 12.968 15.672.139.065-.612 2.631-1.668 5.7-5.646 16.41-2.6 28.476 8.615 34.133 5.846 2.948 10.944 1.157 17.941-6.305 6.026-6.426 5.612-9.198-1.959-13.112-10.337-5.344-15.686-17.395-8.932-20.123 9.299-3.755 15.586-7.444 21.703-12.734l6.943-6.003 29.052-.305 29.052-.304 4.723-2.777c6.518-3.831 11.001-12.34 14.212-26.973.875-3.989-5.86-4.077-9.511-.125l-2.424 2.624-15-.836c-44.748-2.495-53.939-.359-71.769 16.68l-6.9 6.594-1.014-2.594c-5.008-12.802 6.178-71.947 19.592-103.593 4.15-9.789 3.866-10.505-4.159-10.476-13.848.051-18.277 2.427-29.557 15.856-11.819 14.07-20.804 31.599-36.152 70.531-4.907 12.447-10.55 24.941-11.022 24.403-.151-.173.357-3.914 1.129-8.314 1.961-11.174 3.212-37.282 2.61-54.5-.455-13.03.83-37.189 2.394-45.009L114.25 31l-7.875.116c-4.331.064-8.775.337-9.875.608M234 165.68c-6.784.698-7.824 1.368-13.281 8.561-8.866 11.687-12.412 20.633-14.765 37.259l-1.274 9-6.09 2.781c-11.411 5.211-15.316 9.093-18.578 18.469-3.17 9.111-3.038 9.31 3.856 5.817 5.283-2.677 15.84-6.567 17.822-6.567 1.501 0 1.133 2.558-2.271 15.782C194.015 277.779 185.224 288 172.566 288 160.945 288 155 280.577 155 266.068c0-7.986-1.113-10.068-5.385-10.068-6.61 0-20.615 13.253-20.615 19.507 0 7.291 9.315 17.491 19.753 21.631 8.449 3.351 32.385 3.419 42.867.123 22.973-7.226 43.013-33.392 45.947-59.994.803-7.285.936-7.421 9.433-9.691 10.454-2.794 17.773-5.668 19.613-7.701 1.705-1.884 4.423-22.172 3.142-23.453-.308-.308-2.718.422-5.356 1.624-6.75 3.075-22.112 8.954-23.397 8.954-2.572 0 .805-27.105 4.514-36.231L247.86 165l-5.18.16c-2.849.088-6.755.322-8.68.52" fill-rule="evenodd"/><path fill="#887f78" stroke="#887f78" d="M97.194 31.987c-3.594.851-4.077 1.357-10.562 11.032-9.264 13.82-12.747 22.895-19.639 51.171-11.072 45.426-24.676 68.912-36.966 63.821-3.175-1.315-4.373-3.754-6.055-12.325-1.33-6.782-2.808-7.768-7.697-5.135C9.984 143.939 4 151.615 4 156.296c0 12.635 16.415 19.527 30.564 12.834 17.646-8.349 27.228-25.826 39.336-71.747 5.328-20.209 9.88-34.023 13.694-41.562 2.995-5.918 4.574-6.989 2.827-1.916-3.515 10.202-5.468 24.182-6.439 46.095-1.562 35.238-2.88 53.241-4.538 61.982-1.945 10.25-1.855 10.372 7.224 9.789 6.32-.406 7.94-.909 11.115-3.454 9.267-7.426 19.421-25.482 32.235-57.317 11.762-29.222 21.478-47.715 29.948-57l3.193-3.5-3.495 6.512c-8.012 14.926-14.938 37.743-18.221 60.024-3.882 26.344 1.169 47.301 12.935 53.67 1.822.987 1.811 1.215-.377 7.791-5.543 16.658-.438 30.966 12.141 34.024 6.107 1.484 20.432-10.976 18.477-16.071-.289-.753-2.684-2.472-5.322-3.82-7.84-4.006-11.546-8.588-12.071-14.924l-.445-5.358 5.86-2.138c7.16-2.613 13.046-6.332 20.617-13.028l5.757-5.093 25.243.604c33.504.801 39.213-.795 45.218-12.645 2.328-4.595 5.524-15.264 5.524-18.442 0-2.179-5.31-2.143-7.128.049-3.567 4.301-6.773 4.596-29.493 2.708-32.22-2.677-43.367.315-60.21 16.16-7.476 7.033-8.124 7.429-9.119 5.57-5.725-10.697 3.835-65.934 17.428-100.7 6.119-15.648 6.375-14.824-4.363-14.062-11.469.814-13.431 1.626-20.465 8.474-14.515 14.129-23.84 30.844-41.167 73.794C114.03 129.595 107.496 144 106.693 144c-.152 0 .561-4.613 1.586-10.25 1.481-8.153 2.045-18.537 2.754-50.75.49-22.275 1.189-43.087 1.553-46.25l.662-5.75-6.374.102c-3.506.057-7.862.455-9.68.885m136.345 134.034c-12.085 1.539-23.088 19.519-27.131 44.333l-1.676 10.28-4.616 2.119c-12.552 5.761-16.904 9.851-19.614 18.431-1.376 4.356-2.502 8.129-2.502 8.384 0 .256 2.363-.732 5.25-2.195 6.206-3.145 18.872-7.584 19.591-6.865.772.772-3.435 19.331-5.839 25.758-10.942 29.245-41.541 30.506-42.08 1.734-.177-9.476-.923-11.443-4.471-11.795-6.122-.609-21.451 12.82-21.451 18.792 0 9.925 13.114 21.18 27.96 23.995 39.425 7.477 73.016-18.223 80.318-61.45 1.181-6.993 1.62-7.996 3.779-8.621 27.135-7.856 26.517-7.386 27.987-21.242.631-5.951.968-11.001.747-11.221-.22-.22-4.426 1.323-9.346 3.43s-11.598 4.812-14.84 6.012l-5.895 2.18.698-11.29c.793-12.819 2.645-22.014 5.603-27.811l2.03-3.979-4.271.131c-2.348.072-6.952.473-10.231.89" fill-rule="evenodd"/><path fill="#5b422f" stroke="#5b422f" d="M99.863 31.894c-5.723.83-6.72 1.646-12.219 9.993C77.704 56.974 75.019 63.89 67.602 93.5c-9.025 36.03-16.008 52.31-26.501 61.79-7.362 6.651-15.077 4.144-16.556-5.38-1.673-10.773-2.951-12.304-7.639-9.153-11.571 7.775-15.371 15.05-11.149 21.341 12.433 18.532 38.789 8.871 52.522-19.251 5.583-11.431 9.147-22.041 15.068-44.847 5.335-20.55 10.601-36.182 14.949-44.378 3.44-6.483 4.65-6.175 2.351.598-4.201 12.372-6.196 29.759-7.141 62.228-.609 20.937-2.59 42.437-4.596 49.888-1.399 5.195-.243 5.933 8.09 5.162 14.56-1.346 23.337-13.685 41.971-58.998 11.755-28.585 19.786-44.553 27.566-54.807 7.92-10.439 9.11-10.615 3.608-.534-9.61 17.607-17.644 46.534-19.675 70.841-1.458 17.45 3.498 34.101 12.063 40.525l4.033 3.025-2.233 6.975c-5.137 16.049-1.463 28.18 9.982 32.962 3.677 1.536 3.934 1.503 8.841-1.169 9.967-5.424 13.96-13.785 7.803-16.335-4.901-2.03-10.767-6.711-12.423-9.914-2.231-4.314-2.088-13.069.214-13.07 3.536-.001 14.092-5.913 22.09-12.37l8.217-6.634 27.722.253c27.431.249 27.771.227 32.512-2.127 7.245-3.599 12.8-13.212 15.237-26.371.68-3.671.63-3.75-2.382-3.75-2.034 0-3.432.665-4.127 1.965-2.168 4.05-7.335 4.489-30.267 2.568-19.822-1.661-21.791-1.671-29.145-.15-12.141 2.51-24.832 9.863-34.553 20.017-4.297 4.489-4.716 4.478-6.001-.15-4.347-15.65 5.345-67.074 19.132-101.519 4.749-11.864 4.629-12.16-4.566-11.289-12.158 1.151-14.016 1.991-21.804 9.853C147.464 54.775 136.076 75.256 121.5 112c-7.715 19.447-14.229 33.604-15.074 32.759-.245-.245.496-5.803 1.648-12.352 1.747-9.938 2.247-18.688 3.022-52.907.512-22.55 1.037-42.575 1.167-44.5.267-3.945-2.255-4.577-12.4-3.106M241 165.554c-.825.178-4.096.609-7.269.959-6.518.718-8.822 2.573-15.854 12.762C211.57 188.414 206 205.871 206 216.501c0 3.118-.477 3.583-7.669 7.462-12.585 6.788-14.796 8.984-17.678 17.554-2.844 8.458-2.738 8.554 5.126 4.622 6.972-3.486 16.124-6.569 16.975-5.718.994.993-2.623 18.184-5.349 25.426-7.165 19.037-20.699 27.635-33.344 21.184-5.931-3.026-8.144-7.54-9.445-19.263-1.578-14.231-4.235-14.992-16.553-4.741-10.945 9.109-11.493 15.448-2.144 24.797 19.172 19.171 61.133 14.99 81.632-8.134 9.987-11.266 17.119-26.964 19.651-43.254l1.119-7.194 9.996-2.681c17.425-4.672 19.16-6.059 20.093-16.061.358-3.85.909-8.723 1.222-10.828l.57-3.828-2.952 1.527c-3.125 1.616-21.192 8.892-25 10.069-5.05 1.56-2.299-24.826 4.242-40.69.72-1.746-1.095-2.141-5.492-1.196" fill-rule="evenodd"/><path fill="#42240e" stroke="#42240e" d="M267.754 122.701c-3.622 3.622-10.394 4.009-32.446 1.858-18.404-1.796-23.84-1.427-34.628 2.346-24.04 8.408-46.397 37.332-48.384 62.595-.519 6.598 1.461 14.184 3.582 13.725.699-.151.996.17.66.714-1.302 2.106 8.357 8.862 10.646 7.447.686-.424.847-.245.411.459-2.358 3.816 8.627-3.035 13.155-8.204 4.641-5.299 4.264-6.919-2.5-10.755-10.36-5.874-13.515-12.264-10.714-21.695 4.511-15.19 18.42-19.845 56.464-18.897 30.807.768 36.934-.549 42.842-9.208 3.09-4.528 6.101-12.5 7.492-19.836.806-4.255-2.591-4.538-6.58-.549M186 161c-.901.582-1.025.975-.309.985.655.008 1.469-.435 1.809-.985.767-1.242.421-1.242-1.5 0m51.011 5.21c-9.555 1.06-9.569 1.068-15.582 8.883-8.887 11.548-13.678 24.061-15.118 39.48l-.595 6.371-6.108 2.893c-11.532 5.461-16.055 9.667-18.473 17.177-1.174 3.646-2.135 6.915-2.135 7.266 0 .35 2.137-.431 4.75-1.737 5.214-2.606 16.386-6.543 18.567-6.543 2.581 0-1.705 19.962-6.656 31-6.532 14.565-20.877 22.077-31.584 16.54-1.553-.803-3.178-1.141-3.611-.75-.432.39-.494.198-.137-.427s-.047-1.714-.898-2.42c-2.718-2.256-4.585-8.218-5.149-16.443-.845-12.337-2.688-13.76-10.721-8.278-10.403 7.099-15.266 14.113-13.498 19.47 1.405 4.256 7.718 11.561 9.2 10.645.579-.357.751-.169.387.42-.858 1.388 7.078 5.807 14.258 7.941 6.967 2.07 24.421 2.275 32.015.376 7.284-1.822 18.304-6.898 17.566-8.091-.326-.528-.007-.743.709-.477 4.702 1.747 27.846-26.389 25.213-30.651-.436-.705-.285-.895.382-.483 1.352.836 5.695-12.407 7.239-22.075 1.298-8.121-.329-6.71 11.749-10.186 5.579-1.606 12.073-3.983 14.431-5.282l4.288-2.363 1.021-10.728c1.134-11.914 1.296-11.678-5.614-8.167-3.492 1.775-21.152 8.413-22.407 8.422-2.611.019.813-30.549 4.172-37.243.759-1.512 1.088-2.75.731-2.75-.356 0-.088-.675.597-1.5.685-.825.852-1.44.372-1.366-.479.073-4.692.558-9.361 1.076" fill-rule="evenodd"/></svg>