<?xml version="1.0" standalone="no"?>
<!DOCTYPE svg PUBLIC "-//W3C//DTD SVG 20010904//EN"
 "http://www.w3.org/TR/2001/REC-SVG-20010904/DTD/svg10.dtd">
<svg version="1.0" xmlns="http://www.w3.org/2000/svg"
 width="656.000000pt" height="656.000000pt" viewBox="0 0 656.000000 656.000000"
 preserveAspectRatio="xMidYMid meet">
<metadata>
Created by potrace 1.14, written by Peter Selinger 2001-2017
</metadata>
<g transform="translate(0.000000,656.000000) scale(0.100000,-0.100000)"
fill="#000000" stroke="none">
<path d="M2078 5938 c-32 -4 -69 -15 -83 -24 -30 -20 -171 -205 -211 -279 -36
-66 -114 -216 -114 -220 0 -3 -10 -26 -21 -52 -25 -57 -116 -327 -123 -363 -3
-14 -10 -41 -16 -60 -6 -19 -13 -42 -15 -50 -1 -9 -17 -72 -34 -140 -35 -141
-36 -146 -51 -215 -6 -27 -14 -57 -17 -65 -3 -8 -7 -20 -9 -27 -15 -74 -116
-383 -152 -463 -8 -19 -16 -40 -18 -47 -7 -37 -125 -256 -172 -322 -95 -133
-171 -190 -265 -199 -45 -4 -50 -2 -86 35 -44 47 -55 81 -77 232 -4 25 -9 51
-13 56 -3 6 -6 12 -6 15 0 3 -7 15 -15 28 -26 39 -81 26 -180 -42 -151 -105
-213 -189 -214 -290 0 -63 7 -107 21 -128 4 -7 8 -15 8 -18 1 -17 65 -85 108
-113 79 -51 139 -69 247 -73 299 -9 554 196 745 601 30 63 55 118 55 122 1 5
9 26 20 48 11 22 19 43 20 47 0 4 5 19 12 35 6 15 12 30 13 33 0 3 20 66 43
140 63 197 83 265 98 330 1 8 12 49 24 90 48 170 83 296 84 305 4 18 38 129
50 160 6 17 11 32 11 35 1 8 26 83 34 105 5 11 25 63 45 116 51 134 70 156 45
54 -10 -44 -21 -96 -24 -115 -3 -20 -7 -45 -9 -57 -30 -156 -49 -402 -71 -958
-13 -304 -39 -687 -49 -704 -2 -3 -7 -37 -11 -76 -3 -38 -8 -79 -10 -90 -6
-27 -15 -90 -21 -145 -3 -25 -7 -53 -10 -62 -3 -11 0 -18 8 -19 40 -3 266 6
278 11 3 1 9 2 14 1 4 -1 29 5 55 14 45 15 99 59 166 136 40 45 155 219 191
289 16 30 31 57 34 60 8 8 31 51 57 105 25 53 33 68 51 100 6 11 21 43 33 70
12 28 32 73 44 100 13 28 40 91 60 140 21 50 43 104 50 120 70 164 115 277
115 285 0 5 5 10 10 10 6 0 10 11 10 25 0 14 5 25 10 25 6 0 10 6 10 14 0 42
276 604 302 614 4 2 8 8 8 13 0 14 94 151 115 169 11 9 7 -5 -12 -40 -75 -139
-204 -485 -228 -613 -2 -9 -6 -20 -8 -25 -5 -7 -55 -226 -63 -272 -3 -14 -7
-36 -9 -50 -11 -54 -13 -69 -20 -120 -4 -29 -8 -61 -10 -71 -19 -98 -28 -522
-12 -604 25 -137 27 -143 87 -268 47 -100 116 -177 185 -209 14 -6 25 -16 25
-22 0 -6 -14 -54 -30 -106 -59 -184 -68 -321 -29 -443 39 -122 142 -229 252
-261 98 -28 187 7 301 121 129 128 143 194 57 257 -25 18 -64 43 -86 54 -55
28 -158 128 -184 179 -26 52 -37 133 -22 162 13 23 65 54 75 44 3 -4 6 -1 6 5
0 7 6 12 14 12 17 0 160 73 226 114 43 27 190 143 254 200 17 15 39 29 50 31
12 2 274 6 582 9 l562 4 68 40 c75 43 147 109 171 157 9 17 19 32 22 35 14 10
89 204 97 246 1 6 9 37 18 67 17 58 17 80 0 110 -25 44 -155 12 -204 -50 l-22
-28 -121 1 c-67 1 -171 4 -232 8 -521 29 -673 25 -880 -24 -188 -44 -323 -129
-560 -354 -44 -42 -83 -72 -87 -68 -4 4 -14 32 -21 62 -14 55 -16 261 -3 378
3 28 8 73 11 100 3 26 7 58 10 72 3 14 7 45 11 70 3 25 7 54 9 65 2 11 7 36
10 55 11 62 13 74 20 114 4 21 8 46 10 55 2 9 13 61 25 116 11 55 25 116 30
135 5 19 11 46 14 60 8 41 53 210 76 285 12 39 23 79 25 90 3 11 18 61 35 110
17 50 32 95 33 100 5 17 38 104 84 219 24 59 46 128 50 151 5 38 3 45 -20 60
-21 13 -47 16 -139 14 -101 -2 -135 -6 -216 -23 -63 -14 -142 -66 -233 -156
-138 -135 -212 -231 -355 -455 -29 -47 -70 -121 -121 -225 -27 -52 -51 -96
-55 -98 -5 -2 -8 -8 -8 -14 0 -6 -13 -38 -29 -72 -16 -34 -54 -122 -86 -196
-31 -74 -65 -153 -75 -175 -27 -59 -130 -318 -135 -335 -2 -8 -17 -45 -34 -82
-16 -38 -28 -68 -24 -68 3 0 1 -6 -5 -13 -6 -6 -19 -35 -30 -63 -11 -27 -34
-79 -50 -114 -16 -36 -32 -72 -35 -80 -9 -26 -8 35 2 86 16 81 32 243 47 454
2 30 6 249 8 485 5 436 12 725 21 825 9 107 22 221 25 230 1 3 2 8 2 11 0 3 3
22 8 43 l8 37 -141 -3 c-78 -1 -168 -6 -199 -10z"/>
<path d="M4877 3263 c-1 0 -31 -4 -67 -7 -112 -10 -140 -20 -192 -67 -88 -82
-189 -230 -263 -387 -30 -62 -81 -216 -89 -264 -3 -19 -8 -41 -10 -49 -3 -8
-8 -32 -11 -54 -10 -67 -16 -109 -20 -131 -2 -12 -6 -47 -10 -77 -7 -53 -36
-97 -65 -97 -6 0 -52 -21 -103 -46 -212 -107 -271 -172 -344 -379 -32 -91 -39
-141 -20 -148 8 -3 61 16 118 42 105 48 260 110 289 116 8 2 28 6 43 10 l28 7
-5 -48 c-4 -27 -17 -94 -31 -149 -14 -55 -28 -111 -31 -125 -28 -129 -119
-333 -188 -422 -55 -69 -160 -146 -224 -162 -156 -41 -309 5 -379 113 -44 68
-61 126 -68 241 -15 218 -19 236 -66 260 -77 42 -247 -52 -386 -213 -89 -103
-104 -148 -79 -254 10 -44 62 -120 131 -189 67 -68 186 -154 212 -154 7 0 13
-5 13 -12 0 -6 3 -8 6 -5 4 3 15 2 26 -4 11 -6 29 -12 41 -14 12 -3 42 -9 67
-14 185 -41 409 -46 590 -12 30 6 70 13 89 16 19 3 41 10 50 14 9 5 21 9 26
10 27 3 87 28 159 65 99 52 133 73 200 126 40 32 205 197 238 240 72 91 175
256 170 273 -1 4 2 7 8 7 5 0 10 4 10 10 0 5 11 33 24 62 34 74 87 236 101
308 3 14 12 81 21 145 7 59 15 83 32 98 16 14 122 54 166 63 59 11 231 70 292
100 74 35 99 61 109 111 22 123 27 153 31 188 2 22 5 50 8 61 5 23 8 107 7
162 l-1 33 -30 -16 c-16 -8 -32 -15 -35 -15 -3 0 -22 -7 -43 -16 -20 -9 -41
-17 -47 -18 -5 -2 -32 -13 -58 -24 -27 -12 -51 -22 -53 -22 -3 0 -24 -8 -47
-19 -23 -10 -93 -37 -156 -60 -83 -31 -116 -39 -121 -30 -13 19 -4 181 16 319
2 19 7 51 9 70 3 19 7 46 10 60 3 14 8 36 10 50 7 39 13 62 24 98 5 18 10 33
10 35 0 14 62 169 74 185 9 11 -10 13 -102 10 -62 -2 -113 -4 -114 -5z"/>
</g>
</svg>
